<svg xmlns="http://www.w3.org/2000/svg" xmlns:xlink="http://www.w3.org/1999/xlink" width="1133.86" height="1133.86" viewBox="0 0 1133.86 1133.86" fill="none"><rect x="0" y="0" width="0" height="0" fill="rgba(249, 249, 249, 1)" /><g opacity="1"  transform="translate(0 0)  rotate(0)"><mask id="bg-mask-0" fill="white"><use transform="translate(0 0)  rotate(NaN)" xlink:href="#path_0"></use></mask><g mask="url(#bg-mask-0)" ><path id="路径 1" fill-rule="evenodd" style="fill:#FFFFFF" opacity="1" d="M215.93 566.93L581.93 566.93L581.93 160.93L215.93 160.93L215.93 566.93Z"></path><g opacity="1"  transform="translate(215.92999267578125 160.92999267578125)  rotate(0)"><path id="路径 2" fill-rule="evenodd" fill="url(#linear_0)" opacity="1" d="M33.15 76.32C32.94 75.83 32.72 75.33 32.59 74.81C29.37 61.92 22.23 51.88 10.98 44.82C8.27 43.11 5.38 41.81 2.44 40.59C1.72 40.29 0.76 40.01 0.19 40.69C-0.32 41.3 0.32 42.01 0.66 42.62C1.17 43.55 1.78 44.45 2.22 45.41C5.97 53.7 8.38 62.29 9.57 71.42C11.09 82.97 10.09 94.33 7.66 105.44C5.89 113.57 4.95 121.89 2.43 129.87C1.05 134.23 2.08 138.33 4.47 142.08C7.06 146.14 9.72 150.14 12.43 154.11C12.83 154.68 13.09 155.68 14.16 155.52C15.31 155.35 15.37 154.38 15.62 153.53C18.52 143.58 22.76 134.18 28.82 125.84C40.4 109.89 55.07 97.79 73.56 90.43C84.87 85.92 96.59 83.81 108.54 83.73C118.58 83.67 128.59 84.97 138.34 88.21C153.03 93.08 166.07 100.46 177.24 111.28C186.58 120.32 193.85 130.77 199.01 142.68C204.02 154.25 206.55 166.43 206.93 179.05C207.25 189.66 206.07 200.04 203.01 210.26C198.36 225.76 190.34 239.15 179.29 250.87C174.42 256.05 168 259.55 163.83 265.47C163.51 265.93 162.83 266.16 162.27 266.4C157.09 268.64 151.9 270.9 146.69 273.08C142.96 274.65 139.17 276.07 135.25 277.1C129.67 278.57 123.99 279.29 118.31 280.17C112.24 281.11 106.33 280.51 100.37 280.24C91.27 279.83 83.37 282.17 77.03 289.02C75.58 290.58 74.03 292.06 72.58 293.62C70.33 296.02 68.3 298.6 66.42 301.31C60.42 309.94 56.9 319.45 55.48 329.9C54.31 338.65 54.11 347.15 56.89 355.71C60.52 366.89 66.08 376.67 75.06 384.36C83.78 391.84 93.96 396.37 105.15 397.97C113.68 399.19 122.25 397.94 130.4 394.75C133.85 393.41 137.28 391.98 140.71 390.58C139.2 393.37 137.25 395.83 137.32 399.01C137.37 401.12 135.6 403.54 137.21 405.17C138.81 406.8 141.47 405.74 143.65 405.8C148.32 405.95 152.91 404.7 157 402.77C160.31 401.21 163.31 398.7 166.14 396.12C178.45 384.94 183.82 370.57 185.53 354.45C185.62 353.72 186.01 352.66 185.04 352.33C184.11 352.02 183.81 353.07 183.3 353.68C178.11 359.86 171.78 363.56 163.43 363.05C159.53 362.82 155.6 363 151.7 362.79C146.78 362.54 142 363.13 137.27 364.55C127.59 367.44 123.65 376.99 128.86 385.29C129.42 386.18 129.71 387.14 128.23 387.08C125.34 386.95 122.68 388.21 119.8 388.17C113.67 388.08 107.72 387.67 101.86 385.34C98.02 383.82 94.06 382.73 90.54 380.4C76.94 371.4 69.5 358.6 68.44 342.44C67.45 327.41 74.12 315.51 85.27 305.94C93.47 298.9 103.1 294.48 113.18 291.07C118.85 289.16 124.58 287.25 130.78 287.43C132.99 287.49 135.33 286.72 137.43 285.88C142.26 283.96 147.22 282.39 152.24 281.36C160.09 279.74 167.55 277.01 174.88 273.96C186.83 268.98 197.1 261.33 205.98 251.98C211.79 245.87 216.77 239.02 221.31 231.85C223.41 228.53 224.27 224.8 225.8 221.3C229.09 213.77 231.08 205.91 231.27 197.69C231.69 179.6 229.85 161.63 227.81 143.68C227.01 136.67 225.8 129.7 225.53 122.64C225.39 118.72 227.89 115.64 231.49 114.74C234.99 113.86 238.92 115.76 240.62 119.15C245.06 128 248.53 137.25 251.4 146.71C253.36 153.17 255.21 159.67 256.89 166.2C259.06 174.63 261.11 183.1 263.03 191.58C264.43 197.74 265.58 203.97 266.75 210.17C267.02 211.56 267.56 212.71 268.95 212.73C270.55 212.75 271.11 211.32 271.34 209.95C272.29 204.31 273.1 198.65 274.11 193.03C275.2 186.97 274.92 180.76 276.6 174.74C277.67 170.9 278.56 166.82 278.2 162.85C277.38 153.59 278.06 144.3 276.91 135.06C275.97 127.62 276.12 120.07 274.78 112.66C274.13 109.06 276.32 106.33 278.06 103.7C279.19 101.99 281.7 102.95 283.6 102.92C285.38 102.89 286.77 103.93 287.98 105.15C289.67 106.86 291.3 108.63 293.02 110.31C305.45 122.41 315.78 136.15 325.2 150.69C330.31 158.58 333.87 167.21 338.17 175.49C339.74 178.51 340.41 181.84 340.98 185.2C341.44 187.92 340.71 190.68 341.46 193.38C341.75 194.41 342.08 195.3 343.35 195.17C344.61 195.05 344.16 194 344.25 193.28C344.53 190.87 344.4 188.44 344.71 186C345.04 183.53 345.6 180.93 345.22 178.4C343.41 166.38 340.83 154.48 336.98 142.99C331.62 127.02 324.85 111.58 315.83 97.26C313.46 93.5 313.78 89.66 316.4 86.89C318.93 84.21 322.97 83.7 326.7 85.88C332.6 89.33 338.51 92.77 344.21 96.53C350.5 100.67 356.58 105.16 362.74 109.5C363.46 110.01 364.19 110.81 365.11 110.19C366.12 109.5 365.46 108.61 365.12 107.8C364.75 106.91 364.53 105.9 364.02 105.1C355.65 91.93 345.65 80.07 334.28 69.52C325.69 61.55 316.73 53.95 307 47.31C297.42 40.77 288.04 33.92 277.73 28.51C266.19 22.45 254.56 16.73 242.14 12.65C230.76 8.91 219.21 6.05 207.41 4.21C201.48 3.29 195.47 2.74 189.54 1.92C181.2 0.77 172.82 0.64 164.46 0.14C157.23 -0.31 149.99 0.43 142.77 1.16C139.87 1.46 137.24 3.09 136.43 5.66C135.55 8.41 136.76 10.44 138.85 12.17C140.7 13.7 142.49 15.31 144.21 16.99C148.37 21.09 152.99 24.82 155.76 30.17C157.72 33.95 159.27 38 158.23 42.22C156.15 50.69 151.3 57.69 145.69 64.19C145.06 64.91 144.45 65.23 143.22 64.8C137.89 62.94 132.58 61.16 126.88 60.46C119.91 59.6 112.92 58.86 105.97 59.17C97.5 59.54 89.03 60.21 80.62 61.56C72.18 62.92 64.04 65.17 56.25 68.59C53.89 69.62 53.37 68.95 53.39 66.84C53.42 61.84 51.66 57.21 50.43 52.48C50.22 51.68 50.06 50.66 48.91 50.52C47.79 50.38 47.28 51.22 46.9 51.98C45.99 53.81 45.15 55.68 44.38 57.58C41.62 64.45 38.45 71.09 33.83 77.25C33.45 76.72 33.26 76.53 33.15 76.32Z"></path><path id="路径 3" fill-rule="evenodd" fill="url(#linear_1)" opacity="1" d="M127.008,132.067c1.17,1.92 2.24,1.92 3.33,0.34c0.8,-1.15 1.96,-1.35 3.25,-1.46c1.44,-0.11 3.15,0.15 3.78,-1.78c0.16,-0.5 0.56,-0.69 1.05,-0.54c3.31,0.93 2.72,-0.63 1.72,-2.6c-0.22,-0.45 -0.19,-1.07 -0.17,-1.59c0.04,-1.02 -0.66,-2.4 0.6,-2.89c1.17,-0.46 1.47,0.99 2.07,1.7c0.4,0.47 0.72,1.1 1.5,0.64c1.28,-0.75 2.34,-1.85 2.44,-3.27c0.07,-1.16 -0.08,-2.1 1.24,-2.55c0.57,-0.18 0.49,-0.69 0.26,-1.1c-1.68,-2.98 0.45,-4.71 2.33,-6.1c1.4,-1.02 0.85,-2.11 0.8,-3.13c-0.07,-1.65 0.86,-1.81 1.76,-1.2c1.26,0.84 2.57,0.85 3.93,1.14c1.92,0.42 3.96,1.37 3.99,3.9c0.02,1.65 1.56,1.4 2.27,1.74c2.24,1.1 4.49,2.96 7.26,0.5c1.09,-0.96 2.67,0.39 3.71,1.34c12.26,11.37 20.22,25.36 24.83,41.4c2.52,8.83 3.77,17.8 3.67,26.98c-0.05,4.68 -0.59,5.31 -5.25,5.93c-1.24,0.17 -2.57,0.07 -3.1,1.56c-0.5,1.45 0.79,2.09 1.51,2.87c1.6,1.7 1.93,3.45 0.34,5.22c-1.6,1.77 -3.36,1.79 -5.06,0c-0.56,-0.59 -1.25,-1.14 -2.08,-1.05c-1.55,0.17 -2.32,-0.48 -2.59,-1.98c-0.07,-0.41 -0.38,-1.09 -0.63,-1.1c-2.59,-0.28 -3.08,-2.63 -4.34,-4.22c-1.56,-1.95 -3.52,-2.13 -5.13,-0.22c-1.45,1.72 -3.1,3.2 -4.73,4.7c-1.66,1.53 -1.99,5.42 -0.67,6.96c0.39,0.46 0.55,0.97 0.02,1.4c-0.49,0.4 -0.91,0.03 -1.42,-0.17c-3.3,-1.3 -4.02,-4.38 -5.13,-7.23c-1.29,-3.32 -3.67,-5.86 -6.09,-8.36c-0.68,-0.7 -1.48,-1.3 -2.56,-1.24c-5.57,0.33 -10.68,-0.91 -15.13,-4.62c-0.23,3.19 2.42,5.88 5.24,5.33c1.99,-0.39 3.36,0.57 4.41,1.84c1.1,1.34 -0.42,2.28 -1.13,3.18c-2.95,3.77 -7.25,5.22 -11.61,6.45c-1.61,0.46 -1.74,-1.09 -2.14,-2.13c-1.6,-4.09 -4.1,-7.64 -6.57,-11.2c-0.18,-0.25 -0.56,-0.35 -1.13,-0.34c1.37,4 2.75,7.97 5.5,11.24c1.03,1.22 2.29,2.18 3.15,3.6c0.92,1.53 2.46,1 3.85,0.62c0.93,-0.25 1.9,-0.66 2.71,0.26c0.82,0.93 -0.06,1.72 -0.34,2.46c-0.91,2.47 -2.39,4.45 -4.66,5.98c-2.05,1.38 -3.62,3.39 -5.12,5.4c-1.19,1.6 -0.98,3.38 -0.5,5.13c1.01,3.62 0.28,6.51 -3.14,8.46c-0.81,0.47 -1.81,1.03 -1.84,2.14c-0.11,4.82 -3.56,7.84 -6.02,11.36c-1.71,2.44 -4.34,3.22 -7.22,3.32c-1.7,0.06 -2.45,-0.69 -2.95,-2.37c-1.31,-4.33 -2.19,-8.79 -4,-12.95c-0.68,-1.57 -0.87,-3.45 -0.11,-4.69c2.43,-4.02 0.23,-7.3 -1.13,-10.78c-0.23,-0.57 -0.76,-1.15 -0.71,-1.69c0.34,-3.8 -1.93,-5.51 -4.99,-6.75c-0.7297,-0.3 -1.2997,-0.28 -2.0197,-0.13c-2.09,0.44 -4.19,0.75 -6.29,1.14c-2.62,0.49 -4.77,-0.53 -6.49,-2.33c-1.59,-1.66 -2.98,-3.53 -4.37,-5.38c-1.22,-1.62 -0.07,-3.46 -0.28,-5.2c-0.53,-4.52 1.38,-7.95 4.95,-10.52c0.81,-0.58 1.07,-1.36 1.37,-2.21c1.08,-3.1 2.85,-4.45 6.01,-4.59c0.81,-0.04 1.55,-0.15 2.3,-0.54c2.37,-1.22 4.9497,-1.32 7.5397,-1.15c0.88,0.06 2.14,0.21 2.29,1.08c0.64,3.81 4.53,3.22 6.56,5.11c0.55,0.51 1.48,0.44 1.85,-0.33c0.92,-1.89 2.45,-1.67 3.86,-1.04c2.5,1.12 5.07,0.76 7.62,0.66c2.29,-0.08 2.49,-1.94 2.57,-3.68c0.09,-2.14 -1.41,-1.45 -2.6,-1.48c-2.69,-0.06 -5.76,0.45 -6.24,-3.59c-0.08,-0.74 -0.68,-1.02 -1.4,-0.82c-0.76,0.21 -0.95,0.76 -0.78,1.45c0.19,0.79 0.08,1.49 -0.73,1.78c-0.82,0.3 -1.31,-0.35 -1.8,-0.86c-1.24,-1.35 -1.99,-3.64 -4.64,-2.11c-0.31,0.18 -1.4,-0.87 -2.05,-1.44c-4.64,-4.04 -8.3797,-3.25 -11.1497,2.36c-1.33,2.71 -3.03,3.57 -5.75,2.93c-2.34,-0.55 -3.89,-3 -3.21,-5.8c0.43,-1.75 2.14,-2.09 3.88,-2.09c3.93,0.01 4.11,-0.35 2.27,-4.04c-0.5,-1 -0.33,-1.69 0.75,-2.1c3.08,-1.18 4.77,-4.12 7.4297,-5.89c1.61,-1.06 0.95,-3.75 1.94,-5.54c0.23,-0.4 -0.45,-0.92 -1.09,-0.77c-1.42,0.36 -2.25,-0.34 -2.6397,-1.59c-0.45,-1.46 -1.02,-3.18 0.4497,-4.23c3.25,-2.33 4.02,-6.16 5.81,-9.33c1.64,-2.89 4.19,-4.28 6.83,-5.61c1.07,-0.55 2.43,-0.34 3.58,0.89c1.64,1.76 4.38,1.66 6.28,3.2c0.94,0.77 2.36,1.14 2.02,2.76c-0.31,1.47 -1.58,1.15 -2.6,1.25c-0.42,0.05 -0.98,-0.05 -1.08,0.52c-0.12,0.65 0.21,1.24 0.64,1.69c0.42,0.44 0.98,0.39 1.45,0.02c2.02,-1.46 3.85,-3.07 3.83,-6.24zM115.148,145.817c-2.96,-0.06 -4.13,-2.02 -3.04,-4.87c0.37,-0.96 2.11,-2.2 0.88,-2.81c-1.3,-0.63 -1.14,1.59 -1.82,2.42c-1.01,1.21 -2.55,2.61 -1.63,4.22c1.3,2.25 -0.35,3.93 -0.57,5.85c-0.12,1 -1.22,1.72 -2.48,1.52c-0.71,-0.11 -1.7,-0.81 -1.73,0.67c-0.01,0.97 0.66,1.29 1.58,1.41c2.99,0.39 7.77,-1.96 7.96,-4.72c0.15,-2.31 1.15,-2.79 3.18,-3.11c-0.96,-0.75 -1.67,-0.57 -2.33,-0.58zM130.628,167.327c-0.97,-1.35 -2.46,-2.3 -3.49,-3.76c-0.51,-0.71 -1.18,0.99 -1.92,1.35c-0.56,0.27 -1.01,-0.12 -1.46,-0.41c-1.56,-1.01 -2.14,0 -2.77,1.26c-0.73,1.48 -0.06,2.01 1.2,2.58c2.18,0.99 4.62,-0.55 6.65,0.9c1.23,-0.21 2.43,-1.03 1.79,-1.92zM137.168,166.997c1.14,1.69 2.46,3.15 2.2,5.49c-0.13,1.16 1.23,1.62 2.24,1.97c0.5,0.18 1.12,0.19 1.49,-0.25c0.72,-0.88 0.01,-1.7 -0.32,-2.46c-0.48,-1.14 -1.1,-2.23 -1.69,-3.33c-0.74,-1.38 -1.8,-2.59 -0.51,-4.35c0.68,-0.95 -0.38,-1.29 -1.09,-1.44c-2.15,0.18 -3.49,2.66 -2.32,4.37z"></path><path id="路径 4" fill-rule="evenodd" fill="url(#linear_2)" opacity="1" d="M42.68,119.741c1.2,-2.8 1.7701,-6.04 5.25,-7.19c0.4,-0.13 0.5901,-0.83 0.88,-1.26c2.41,-3.63 5.6401,-6.24 9.74,-7.7c1.07,-0.39 1.7,-1.24 2.47,-1.97c2.43,-2.2804 5.37,-3.7304 8.4701,-4.8204c0.9299,-0.33 1.89,-0.18 2.4299,0.99c1.47,3.1704 4,3.6204 6.48,1.09c1.35,-1.38 2.9801,-2.19 4.68,-2.91c1.76,-0.74 5.59,1.56 5.6901,3.47c0.0899,2.0104 -1.9001,1.0604 -2.9301,1.8804c0.9801,1.35 2.01,2.32 3.84,1.54c0.86,-0.35 1.6,-0.18 2.0901,0.6c0.6199,0.98 -0.2201,1.43 -0.7901,1.98c-1.6699,1.58 -2.39,3.67 -3.1599,5.76c-1.7001,4.58 -1.7801,9.79 -5.19,13.72c-0.5101,0.59 -0.6601,1.23 -0.36,1.98c0.0999,0.25 0.1799,0.53 0.1599,0.78c-0.0799,1.38 -3.2999,4.98 -4.79,5.21c-1.9299,0.29 -3.5099,1.1 -4.81,2.57c-0.47,0.51 -1.07,1.09 -1.6999,1.24c-3.6601,0.88 -5.0401,3.95 -6.6501,6.79c-0.57,1.01 -1.03,2.5 -2.37,2.06c-1.39,-0.46 -3.13,-1.01 -3.33,-3.01c-0.39,-3.85 -1.68,-7.9 2.33,-10.79c-0.74,-2.02 1.14,-3.74 0.67,-5.66c-0.17,-0.67 -0.26,-1.2 0.09,-1.76c1.16,-1.88 0.61,-4.02 0.89,-6.02c0.23,-1.63 -0.9,-2.16 -2.28,-2.33c-2.24,-0.28 -2.63,-1.57 -1.24,-3.06c1.13,-1.21 0.26,-2.06 -0.22,-2.72c-0.74,-1.04 -1.55,-0.09 -2.22,0.45c-0.69,0.57 -1.49,1.08 -1.95,1.81c-1.46,2.27 -3.26,2.4 -5.48,1.28c-0.61,-0.31 -1.6699,-0.99 -1.91,0.31c-0.21,1.14 0.93,1.05 1.69,1.18c0.67,0.11 1.53,-0.08 1.78,0.82c0.2701,1 -0.46,1.51 -1.18,1.85c-1.15,0.56 -1.27,2.22 -3.29,2.5c1.18,0.19 1.8,0.23 2.41,0.4c0.3,0.09 0.77,0.55 0.76,0.57c-1.74,2.64 1.56,3.43 1.99,5.32c0.29,1.27 0.6501,2.35 0.07,3.57c-0.5,1.07 -0.37,1.99 0.34,3c1.39,1.96 0.8,3.53 -1.48,3.49c-1.62,-0.03 -1.88,0.45 -1.65,1.78c0.28,1.58 -0.68,2.28 -1.94,2.74c-1.38,0.5 -2.63,0.03 -3.1899,-1.17c-0.6501,-1.36 -1.5,-2.24 -2.9801,-2.43c0.3,-0.86 0.9,-0.82 1.37,-1c2.46,-0.95 3.66,-5.71 1.88,-7.67c-0.5899,-0.65 -1.35,-0.88 -1.85,0.24c-1.14,2.55 -2.33,5.01 -5.47,5.7c-0.85,0.19 -1.18,0.99 -0.63,1.92c0.35,0.59 0.93,1.38 0.09,1.86c-0.63,0.37 -1.82,0.67 -2.25,0.33c-2,-1.57 -3.26,-0.08 -4.63,0.9c-1.31,0.93 -2.53,1.97 -3.79,2.96c-0.4,0.31 -0.78,0.85 -1.35,0.37c-0.37,-0.32 -0.43,-0.84 -0.18,-1.23c2.49,-3.87 3.18,-9 7.91,-11.33c1.14,-0.57 1.51,-1.95 1.95,-3.12c0.24,-0.66 0.35,-1.42 0.74,-1.98c0.6,-0.86 1.42,-2.16 2.43,-1.71c1.41,0.62 0.23,1.81 -0.07,2.74c-0.03,0.09 -0.07,0.17 -0.09,0.25c-0.48,1.15 -0.54,2.28 0.31,3.28c0.63,0.74 1.21,0.14 1.58,-0.24c0.81,-0.83 1.85,-1.4 0.93,-3.11c-0.75,-1.39 0.38,-3.01 1.3,-4.33c0.6,-0.87 1.16,-1.78 1.75,-2.67c-0.03,-0.01 -0.04,-0.09 -0.04,-0.09zM64.8,107.451c0.76,-0.59 0.65,-1.4 0.6601,-2.18c0,-0.38 -0.2101,-0.68 -0.6201,-0.74c-1.02,-0.15 -4.44,2.86 -4.84,4.41c1.86,-0.35 3.45,-0.45 4.8,-1.49z"></path><path id="路径 5" fill-rule="evenodd" fill="url(#linear_3)" opacity="1" d="M23.7901 214.409C26.9501 217.509 28.6301 221.899 32.5501 224.369C34.9101 225.869 36.2701 228.169 37.1801 230.919C38.1101 233.719 38.4101 236.639 39.0701 239.479C40.2401 244.449 41.2601 249.339 45.6401 252.619C46.4001 253.179 47.0901 254.249 48.1201 253.289C48.8701 252.579 51.1501 253.029 50.0301 250.769C49.6201 249.949 50.5701 249.309 50.9401 248.659C51.8401 247.099 54.6201 246.539 53.4201 243.829C53.3801 243.729 54.0301 243.259 54.4101 243.059C54.9901 242.729 55.4801 242.259 55.5701 241.659C55.9101 239.389 57.8601 237.629 57.3501 235.069C57.1001 233.819 58.2301 232.999 59.3201 232.479C62.9001 230.779 63.7701 229.409 63.4201 225.269C63.2701 223.549 63.6101 222.159 64.5801 220.759C66.6601 217.769 66.3601 216.699 63.4101 214.669C60.1401 212.419 56.0401 212.479 52.6401 210.609C52.0201 210.269 51.1801 210.269 51.1401 209.379C51.0201 206.759 48.9901 205.679 47.2901 204.269C45.9801 203.169 43.9401 203.699 42.9801 202.809C39.4101 199.489 34.8901 199.629 30.6301 198.839C26.9901 198.169 24.5101 200.969 25.3501 204.539C25.5401 205.299 25.5201 206.019 25.0401 206.569C23.5401 208.259 22.5301 210.029 23.7001 212.129C23.3001 213.059 23.2601 213.839 23.7901 214.409Z"></path><path id="路径 6" fill-rule="evenodd" fill="url(#linear_4)" opacity="1" d="M39.9982,159.468c1.67,1.45 0.1,4.25 2.87,4.9c-1.39,1.39 -2.71,1.99 -4.42,1.76c-1.63,-0.23 -2.64,0.93 -3.93,1.72c-4.56,2.79 -6.08,8.44 -10.69,11.11c-1.57,0.9 -1.05,2.48 -1,3.87c0.03,0.93 0.49,2.18 -0.79,2.5c-1.3,0.34 -1.24,-1.05 -1.51,-1.77c-0.5,-1.31 -1.28,-1.88 -2.67,-2.11c-2.04,-0.34 -2.81,-1.47 -2.83,-3.84c-0.09,-10.09 2.94,-19.47 6.01,-28.85c0.7,-2.13 1.27,-2.09 2.86,-0.34c0.88,0.96 1.94,1.79 3.04,2.49c1.61,1.01 2.87,2.07 2.21,4.25c-0.12,0.4 0.08,0.95 0.59,1.07c0.74,0.17 0.8,-0.49 1.01,-0.96c0.7,-1.66 1.44,-3.23 3.26,-4.02c0.75,-0.32 1.3,-1.22 1.19,-1.98c-0.32,-2.25 1.13,-3.86 1.75,-5.77c0.47,-1.43 1.31,-2.3 2.97,-1.94c1.75,0.38 3.18,1.37 2.97,3.18c-0.24,2.16 0.47,2.65 2.39,2.5c1.03,-0.08 2.13,0.44 2.03,1.62c-0.16,1.93 0.83,3.12 1.94,4.44c1.37,1.64 1.25,3.06 -0.73,4.43c-2.57,1.76 -5.54,0.84 -8.52,1.74zM24.2482,165.718c0.51,0.44 1.18,-0.02 1.47,-0.66c0.31,-0.71 -0.19,-0.96 -0.72,-1.15c-0.75,-0.27 -1.42,-0.55 -1.85,-1.36c-1.26,-2.37 -1.3,-2.35 -3.79,-0.5c3.61,1.05 0.67,2.9 0.8,4.83c1.09,-1.73 2.21,-2.76 4.09,-1.16z"></path><path id="路径 7" fill-rule="evenodd" fill="url(#linear_5)" opacity="1" d="M108.944 110.487C109.664 109.977 109.914 109.217 110.344 108.567C110.994 107.587 110.584 106.867 109.564 106.487C107.034 105.537 103.124 107.197 101.864 109.757C100.534 112.437 104.364 112.257 104.414 114.297C104.434 114.907 105.394 115.297 106.184 115.137C106.424 115.087 106.784 114.867 106.804 114.697C106.954 113.047 108.214 113.387 109.964 113.537C108.004 112.457 107.524 111.507 108.944 110.487Z"></path><path id="路径 8" fill-rule="evenodd" fill="url(#linear_6)" opacity="1" d="M185.535 204.922C184.915 204.712 183.905 205.082 184.485 205.782C186.425 208.112 187.095 211.262 189.395 213.332C190.305 214.162 191.315 214.362 192.175 213.312C192.925 212.392 193.115 211.452 191.965 210.542C191.135 209.892 190.395 209.022 190.575 207.832C191.135 204.292 190.695 203.392 187.315 201.572C187.025 203.232 188.985 204.382 188.265 206.252C187.245 205.752 186.425 205.232 185.535 204.922Z"></path><path id="路径 9" fill-rule="evenodd" fill="url(#linear_7)" opacity="1" d="M134.382 235.178C135.472 235.648 136.402 234.838 136.842 234.058C138.402 231.278 139.672 228.348 140.602 225.278C140.762 224.768 140.702 224.198 140.262 223.798C139.762 223.348 139.332 223.638 138.842 223.928C135.482 225.918 133.632 228.858 133.242 232.768C133.092 233.798 133.392 234.758 134.382 235.178Z"></path><path id="路径 10" fill-rule="evenodd" fill="url(#linear_8)" opacity="1" d="M129.362 124.263C129.562 125.063 130.022 125.733 130.692 126.203C131.242 126.593 131.802 127.273 132.552 126.673C133.162 126.193 132.842 125.503 132.652 124.943C131.392 121.243 132.162 117.943 134.542 114.953C135.262 114.053 135.592 113.163 134.952 112.073C130.042 114.603 128.012 119.023 129.362 124.263Z"></path><path id="路径 11" fill-rule="evenodd" fill="url(#linear_9)" opacity="1" d="M96.8744 157.828C97.3344 156.838 96.8544 155.928 96.2044 155.128C95.3044 154.028 94.3644 152.978 94.1744 151.448C94.0644 150.558 93.7944 149.678 92.7544 149.428C92.1044 149.268 91.4744 149.368 91.1144 149.998C90.6144 150.888 90.8544 151.838 91.4344 152.498C92.6244 153.868 92.5844 155.268 92.2044 156.938C91.9044 158.238 92.4044 159.468 94.0344 159.258C95.3444 159.238 96.3744 158.878 96.8744 157.828Z"></path><path id="路径 12" fill-rule="evenodd" fill="url(#linear_10)" opacity="1" d="M81.3331 136.992C80.5031 137.092 79.6631 137.222 79.6131 138.252C79.5631 139.212 79.5531 140.202 80.6031 140.812C82.3831 141.832 83.8231 141.012 85.2331 140.052C86.0031 139.522 86.5231 138.742 86.1431 137.762C85.7831 136.802 84.8731 136.642 84.0931 136.602C83.0831 136.752 82.2131 136.902 81.3331 136.992Z"></path><path id="路径 13" fill-rule="evenodd" fill="url(#linear_11)" opacity="1" d="M20.367 199.52C19.607 198.55 19.917 197.27 19.617 196.16C19.337 195.13 18.507 194.78 17.557 194.86C16.667 194.93 16.127 195.43 16.047 196.41C15.817 199.11 19.767 202.3 22.687 201.61C22.2071 200.53 20.987 200.32 20.367 199.52Z"></path><path id="路径 14" fill-rule="evenodd" fill="url(#linear_12)" opacity="1" d="M140.303 99.4607C141.263 101.241 142.633 102.591 144.663 103.081C146.023 103.411 146.343 102.601 145.943 101.601C145.123 99.5207 142.683 99.3407 141.503 97.8507C140.243 97.9407 139.803 98.5307 140.303 99.4607Z"></path><path id="路径 15" fill-rule="evenodd" fill="url(#linear_13)" opacity="1" d="M90.0738 153.251C88.6738 153.471 87.7238 154.341 87.7038 155.921C87.6938 156.771 87.7838 157.601 88.9038 157.521C90.5838 157.381 90.9138 156.091 91.1338 154.551C91.1038 153.991 90.9838 153.101 90.0738 153.251Z"></path><path id="路径 16" fill-rule="evenodd" fill="url(#linear_14)" opacity="1" d="M48.4107 159.217C47.6407 159.017 47.4507 159.867 47.4407 160.467C47.4307 161.777 48.1107 162.647 49.4207 162.817C50.2107 162.927 50.6607 162.327 50.9707 161.577C50.4807 160.417 49.6407 159.507 48.4107 159.217Z"></path><path id="路径 17" fill-rule="evenodd" fill="url(#linear_15)" opacity="1" d="M197.744 207.166C196.774 207.476 195.504 207.776 195.634 209.156C195.714 209.986 196.084 211.186 197.124 211.086C198.624 210.926 198.404 209.396 198.734 208.396C198.624 207.746 198.714 206.866 197.744 207.166Z"></path><path id="路径 18" fill-rule="evenodd" fill="url(#linear_16)" opacity="1" d="M40.9203 118.476C39.6103 119.116 38.6703 120.226 38.5803 122.186C40.2403 121.446 41.6103 120.916 42.6903 119.816L42.6803 119.746C42.6403 118.556 41.8603 118.026 40.9203 118.476Z"></path><path id="路径 19" fill-rule="evenodd" fill="url(#linear_17)" opacity="1" d="M148.22 102.292C147.73 102.142 146.96 102.062 147.1 102.792C147.26 103.602 147.82 104.392 148.68 104.732C149.25 104.962 149.67 104.632 149.87 103.832C149.86 102.902 149.06 102.552 148.22 102.292Z"></path><path id="路径 20" fill-rule="evenodd" fill="url(#linear_18)" opacity="1" d="M32.0845 191.979C32.1045 191.329 31.4445 191.219 30.8845 191.259C30.2945 191.289 29.5145 191.149 29.4445 192.039C29.3945 192.749 29.8145 193.199 30.5945 193.159C31.4145 193.179 32.0545 192.789 32.0845 191.979Z"></path></g></g></g><defs><rect id="path_0" x="0" y="0" width="1133.86" height="1133.86" /><linearGradient id="linear_0" x1="0.001999430848136065%" y1="49.99908463855357%" x2="100.00000695418471%" y2="49.99908463855357%" gradientUnits="objectBoundingBox"><stop offset="0" stop-color="#B41E23" stop-opacity="1" /><stop offset="0.9629" stop-color="#8D1D22" stop-opacity="1" /><stop offset="1" stop-color="#8C1C21" stop-opacity="1" /></linearGradient><linearGradient id="linear_1" x1="0.017249694678908162%" y1="50.01278589142145%" x2="100.0060560251046%" y2="50.01278589142145%" gradientUnits="objectBoundingBox"><stop offset="0" stop-color="#B41E23" stop-opacity="1" /><stop offset="0.9629" stop-color="#8D1D22" stop-opacity="1" /><stop offset="1" stop-color="#8C1C21" stop-opacity="1" /></linearGradient><linearGradient id="linear_2" x1="0.009583761669635097%" y1="50.002791174481956%" x2="100.02679480427727%" y2="50.002791174481956%" gradientUnits="objectBoundingBox"><stop offset="0" stop-color="#B41E23" stop-opacity="1" /><stop offset="0.9629" stop-color="#8D1D22" stop-opacity="1" /><stop offset="1" stop-color="#8C1C21" stop-opacity="1" /></linearGradient><linearGradient id="linear_3" x1="-0.01348907291986946%" y1="49.968479802125835%" x2="100.00401919792084%" y2="49.968479802125835%" gradientUnits="objectBoundingBox"><stop offset="0" stop-color="#B41E23" stop-opacity="1" /><stop offset="0.9629" stop-color="#8D1D22" stop-opacity="1" /><stop offset="1" stop-color="#8C1C21" stop-opacity="1" /></linearGradient><linearGradient id="linear_4" x1="0.008892792192403274%" y1="50.02063512560535%" x2="100.01307275914616%" y2="50.02063512560535%" gradientUnits="objectBoundingBox"><stop offset="0" stop-color="#B41E23" stop-opacity="1" /><stop offset="0.9629" stop-color="#8D1D22" stop-opacity="1" /><stop offset="1" stop-color="#8C1C21" stop-opacity="1" /></linearGradient><linearGradient id="linear_5" x1="0.15878637665291934%" y1="50.07330736444722%" x2="100.1956237749068%" y2="50.07330736444722%" gradientUnits="objectBoundingBox"><stop offset="0" stop-color="#B41E23" stop-opacity="1" /><stop offset="0.9629" stop-color="#8D1D22" stop-opacity="1" /><stop offset="1" stop-color="#8C1C21" stop-opacity="1" /></linearGradient><linearGradient id="linear_6" x1="0.0002585170103479797%" y1="50.01001680180672%" x2="100.03283582929771%" y2="50.01001680180672%" gradientUnits="objectBoundingBox"><stop offset="0" stop-color="#B41E23" stop-opacity="1" /><stop offset="0.9629" stop-color="#8D1D22" stop-opacity="1" /><stop offset="1" stop-color="#8C1C21" stop-opacity="1" /></linearGradient><linearGradient id="linear_7" x1="0.023649542605091722%" y1="50.060594206311094%" x2="100.01334857172746%" y2="50.060594206311094%" gradientUnits="objectBoundingBox"><stop offset="0" stop-color="#B41E23" stop-opacity="1" /><stop offset="0.9629" stop-color="#8D1D22" stop-opacity="1" /><stop offset="1" stop-color="#8C1C21" stop-opacity="1" /></linearGradient><linearGradient id="linear_8" x1="-0.08330112011979834%" y1="50.03850342341018%" x2="100.00619440467999%" y2="50.03850342341018%" gradientUnits="objectBoundingBox"><stop offset="0" stop-color="#B41E23" stop-opacity="1" /><stop offset="0.9629" stop-color="#8D1D22" stop-opacity="1" /><stop offset="1" stop-color="#8C1C21" stop-opacity="1" /></linearGradient><linearGradient id="linear_9" x1="0.060192584360878765%" y1="49.997882675298975%" x2="99.90053229643328%" y2="49.997882675298975%" gradientUnits="objectBoundingBox"><stop offset="0" stop-color="#B41E23" stop-opacity="1" /><stop offset="0.9629" stop-color="#8D1D22" stop-opacity="1" /><stop offset="1" stop-color="#8C1C21" stop-opacity="1" /></linearGradient><linearGradient id="linear_10" x1="0.02509474115205653%" y1="49.950977007923%" x2="99.97361520769329%" y2="49.950977007923%" gradientUnits="objectBoundingBox"><stop offset="0" stop-color="#B41E23" stop-opacity="1" /><stop offset="0.9629" stop-color="#8D1D22" stop-opacity="1" /><stop offset="1" stop-color="#8C1C21" stop-opacity="1" /></linearGradient><linearGradient id="linear_11" x1="-0.05239476069719717%" y1="50.02374748063132%" x2="99.95512276421886%" y2="50.02374748063132%" gradientUnits="objectBoundingBox"><stop offset="0" stop-color="#B41E23" stop-opacity="1" /><stop offset="0.9629" stop-color="#8D1D22" stop-opacity="1" /><stop offset="1" stop-color="#8C1C21" stop-opacity="1" /></linearGradient><linearGradient id="linear_12" x1="0.041736503623900065%" y1="50.01182502367061%" x2="100.06338227399031%" y2="50.01182502367061%" gradientUnits="objectBoundingBox"><stop offset="0" stop-color="#B41E23" stop-opacity="1" /><stop offset="0.9629" stop-color="#8D1D22" stop-opacity="1" /><stop offset="1" stop-color="#8C1C21" stop-opacity="1" /></linearGradient><linearGradient id="linear_13" x1="0.15783748710442677%" y1="50.03812073090038%" x2="100.11411153873864%" y2="50.03812073090038%" gradientUnits="objectBoundingBox"><stop offset="0" stop-color="#B41E23" stop-opacity="1" /><stop offset="0.9629" stop-color="#8D1D22" stop-opacity="1" /><stop offset="1" stop-color="#8C1C21" stop-opacity="1" /></linearGradient><linearGradient id="linear_14" x1="0.2222525833521589%" y1="49.74409848154103%" x2="100.06084492909228%" y2="49.74409848154103%" gradientUnits="objectBoundingBox"><stop offset="0" stop-color="#B41E23" stop-opacity="1" /><stop offset="0.9629" stop-color="#8D1D22" stop-opacity="1" /><stop offset="1" stop-color="#8C1C21" stop-opacity="1" /></linearGradient><linearGradient id="linear_15" x1="0.3211206846292445%" y1="50.094534770834706%" x2="100.13813841618682%" y2="50.094534770834706%" gradientUnits="objectBoundingBox"><stop offset="0" stop-color="#B41E23" stop-opacity="1" /><stop offset="0.9629" stop-color="#8D1D22" stop-opacity="1" /><stop offset="1" stop-color="#8C1C21" stop-opacity="1" /></linearGradient><linearGradient id="linear_16" x1="0.05215419501242443%" y1="50.011469981907666%" x2="100.09750566893425%" y2="50.011469981907666%" gradientUnits="objectBoundingBox"><stop offset="0" stop-color="#B41E23" stop-opacity="1" /><stop offset="0.9629" stop-color="#8D1D22" stop-opacity="1" /><stop offset="1" stop-color="#8C1C21" stop-opacity="1" /></linearGradient><linearGradient id="linear_17" x1="-0.06538843404051135%" y1="50.02139311229754%" x2="99.98995932285682%" y2="50.02139311229754%" gradientUnits="objectBoundingBox"><stop offset="0" stop-color="#B41E23" stop-opacity="1" /><stop offset="0.9629" stop-color="#8D1D22" stop-opacity="1" /><stop offset="1" stop-color="#8C1C21" stop-opacity="1" /></linearGradient><linearGradient id="linear_18" x1="-0.23993732450862565%" y1="49.90988609761258%" x2="99.94270234610151%" y2="49.90988609761258%" gradientUnits="objectBoundingBox"><stop offset="0" stop-color="#B41E23" stop-opacity="1" /><stop offset="0.9629" stop-color="#8D1D22" stop-opacity="1" /><stop offset="1" stop-color="#8C1C21" stop-opacity="1" /></linearGradient></defs></svg>