<?xml version="1.0" encoding="utf-8"?>
<!-- Generator: Adobe Illustrator 23.0.2, SVG Export Plug-In . SVG Version: 6.00 Build 0)  -->
<svg version="1.1" id="图层_1" xmlns="http://www.w3.org/2000/svg" xmlns:xlink="http://www.w3.org/1999/xlink" x="0px" y="0px"
	 viewBox="0 0 1133.86 1133.86" style="enable-background:new 0 0 1133.86 1133.86;" xml:space="preserve">
<style type="text/css">
	.st0{fill:#FFFFFF;}
	.st1{fill:url(#SVGID_1_);}
	.st2{fill:url(#SVGID_2_);}
	.st3{fill:url(#SVGID_3_);}
	.st4{fill:url(#SVGID_4_);}
	.st5{fill:url(#SVGID_5_);}
	.st6{fill:url(#SVGID_6_);}
	.st7{fill:url(#SVGID_7_);}
	.st8{fill:url(#SVGID_8_);}
	.st9{fill:url(#SVGID_9_);}
	.st10{fill:url(#SVGID_10_);}
	.st11{fill:url(#SVGID_11_);}
	.st12{fill:url(#SVGID_12_);}
	.st13{fill:url(#SVGID_13_);}
	.st14{fill:url(#SVGID_14_);}
	.st15{fill:url(#SVGID_15_);}
	.st16{fill:url(#SVGID_16_);}
	.st17{fill:url(#SVGID_17_);}
	.st18{fill:url(#SVGID_18_);}
	.st19{fill:url(#SVGID_19_);}
</style>
<rect x="154.67" y="104.74" class="st0" width="824.51" height="824.51"/>
<g>
	<linearGradient id="SVGID_1_" gradientUnits="userSpaceOnUse" x1="386.5026" y1="556.7321" x2="778.5367" y2="556.7321">
		<stop  offset="0" style="stop-color:#B41E23"/>
		<stop  offset="0.9629" style="stop-color:#8D1D22"/>
		<stop  offset="1" style="stop-color:#8C1C21"/>
	</linearGradient>
	<path class="st1" d="M422.77,422.74c4.95-6.57,8.35-13.64,11.31-20.96c0.82-2.02,1.72-4.01,2.7-5.96c0.41-0.81,0.95-1.71,2.15-1.56
		c1.24,0.15,1.41,1.24,1.63,2.09c1.32,5.04,3.21,9.97,3.18,15.3c-0.02,2.24,0.54,2.96,3.07,1.86c8.35-3.64,17.07-6.04,26.12-7.49
		c9.02-1.44,18.1-2.15,27.18-2.54c7.46-0.33,14.95,0.45,22.42,1.37c6.12,0.75,11.81,2.64,17.52,4.62c1.32,0.46,1.98,0.12,2.65-0.65
		c6.02-6.92,11.22-14.38,13.45-23.4c1.11-4.5-0.55-8.81-2.65-12.84c-2.97-5.7-7.92-9.67-12.39-14.04c-1.84-1.79-3.76-3.5-5.74-5.13
		c-2.24-1.84-3.54-4.01-2.6-6.94c0.87-2.73,3.69-4.47,6.8-4.79c7.74-0.78,15.5-1.57,23.26-1.09c8.96,0.54,17.94,0.67,26.89,1.9
		c6.36,0.87,12.8,1.46,19.16,2.44c12.65,1.96,25.03,5.01,37.23,8.99c13.32,4.35,25.79,10.44,38.16,16.89
		c11.06,5.77,21.11,13.06,31.39,20.03c10.43,7.07,20.03,15.17,29.24,23.66c12.2,11.24,22.92,23.87,31.89,37.9
		c0.55,0.86,0.78,1.93,1.18,2.88c0.37,0.86,1.07,1.81-0.01,2.54c-0.99,0.67-1.77-0.19-2.54-0.73c-6.61-4.62-13.12-9.41-19.87-13.82
		c-6.11-4-12.45-7.67-18.77-11.34c-4-2.32-8.33-1.78-11.05,1.07c-2.81,2.96-3.15,7.05-0.61,11.05c9.67,15.26,16.93,31.7,22.68,48.72
		c4.13,12.23,6.89,24.91,8.83,37.72c0.41,2.69-0.19,5.46-0.54,8.09c-0.34,2.6-0.2,5.19-0.5,7.76c-0.09,0.76,0.39,1.88-0.96,2.01
		c-1.36,0.14-1.72-0.81-2.03-1.91c-0.8-2.87-0.02-5.81-0.51-8.71c-0.61-3.58-1.33-7.13-3.01-10.34
		c-4.61-8.82-8.43-18.02-13.91-26.42c-10.1-15.49-21.18-30.13-34.5-43.02c-1.85-1.79-3.6-3.67-5.41-5.49
		c-1.3-1.3-2.78-2.41-4.69-2.38c-2.04,0.03-4.73-0.99-5.94,0.83c-1.87,2.8-4.22,5.71-3.52,9.55c1.44,7.89,1.28,15.93,2.28,23.86
		c1.24,9.84,0.51,19.74,1.39,29.6c0.38,4.23-0.57,8.58-1.72,12.67c-1.8,6.41-1.5,13.03-2.67,19.48c-1.08,5.99-1.95,12.02-2.97,18.03
		c-0.25,1.45-0.85,2.98-2.56,2.96c-1.49-0.02-2.07-1.25-2.36-2.73c-1.25-6.61-2.49-13.24-3.99-19.8
		c-2.06-9.04-4.25-18.06-6.58-27.04c-1.8-6.96-3.79-13.88-5.89-20.76c-3.08-10.08-6.8-19.93-11.56-29.36
		c-1.82-3.61-6.03-5.64-9.79-4.7c-3.85,0.96-6.54,4.24-6.38,8.42c0.28,7.52,1.58,14.94,2.44,22.41c2.19,19.12,4.16,38.26,3.71,57.54
		c-0.21,8.75-2.34,17.12-5.87,25.15c-1.64,3.72-2.56,7.7-4.81,11.23c-4.87,7.64-10.21,14.94-16.44,21.45
		c-9.52,9.96-20.53,18.11-33.34,23.41c-7.86,3.25-15.86,6.16-24.28,7.88c-5.38,1.1-10.7,2.78-15.87,4.82
		c-2.26,0.89-4.77,1.72-7.14,1.65c-6.64-0.19-12.79,1.84-18.87,3.88c-10.8,3.63-21.13,8.34-29.92,15.84
		c-11.95,10.19-19.11,22.87-18.05,38.88c1.14,17.22,9.12,30.85,23.7,40.44c3.77,2.48,8.02,3.64,12.14,5.26
		c6.28,2.48,12.66,2.92,19.23,3.02c3.09,0.04,5.94-1.3,9.04-1.17c1.59,0.07,1.28-0.95,0.68-1.9c-5.59-8.84-1.37-19.02,9.01-22.1
		c5.08-1.51,10.2-2.14,15.48-1.87c4.18,0.22,8.39,0.03,12.57,0.28c8.96,0.54,15.74-3.4,21.31-9.99c0.54-0.64,0.86-1.76,1.86-1.43
		c1.04,0.35,0.62,1.48,0.53,2.26c-1.84,17.17-7.59,32.47-20.79,44.38c-3.04,2.75-6.25,5.43-9.8,7.09
		c-4.39,2.05-9.31,3.39-14.32,3.23c-2.33-0.07-5.18,1.06-6.9-0.67c-1.73-1.74,0.17-4.32,0.12-6.57c-0.08-3.38,2.01-6,3.63-8.98
		c-3.68,1.49-7.35,3.02-11.05,4.45c-8.74,3.39-17.93,4.72-27.08,3.42c-11.99-1.7-22.91-6.52-32.26-14.49
		c-9.62-8.19-15.59-18.61-19.48-30.52c-2.98-9.12-2.77-18.18-1.51-27.5c1.52-11.13,5.3-21.26,11.73-30.45
		c2.02-2.89,4.19-5.64,6.6-8.2c1.56-1.66,3.22-3.23,4.78-4.9c6.79-7.29,15.26-9.78,25.02-9.35c6.39,0.29,12.73,0.93,19.23-0.07
		c6.09-0.94,12.19-1.71,18.17-3.27c4.2-1.1,8.26-2.61,12.26-4.28c5.59-2.33,11.15-4.73,16.71-7.12c0.6-0.26,1.33-0.5,1.67-0.99
		c4.47-6.31,11.35-10.04,16.58-15.56c11.84-12.48,20.44-26.74,25.43-43.26c3.28-10.88,4.55-21.94,4.2-33.24
		c-0.41-13.45-3.12-26.42-8.49-38.75c-5.53-12.68-13.33-23.81-23.34-33.44c-11.98-11.53-25.96-19.39-41.71-24.58
		c-10.45-3.45-21.19-4.84-31.95-4.77c-12.81,0.08-25.38,2.33-37.51,7.13c-19.82,7.85-35.55,20.74-47.97,37.73
		c-6.49,8.88-11.04,18.89-14.15,29.49c-0.27,0.91-0.33,1.94-1.56,2.12c-1.15,0.17-1.43-0.89-1.86-1.5
		c-2.9-4.23-5.76-8.49-8.53-12.81c-2.57-4-3.67-8.37-2.19-13.01c2.7-8.5,3.71-17.37,5.61-26.03c2.6-11.83,3.67-23.93,2.05-36.24
		c-1.28-9.72-3.86-18.87-7.89-27.7c-0.47-1.03-1.12-1.98-1.67-2.98c-0.36-0.65-1.05-1.4-0.5-2.05c0.61-0.72,1.64-0.43,2.41-0.11
		c3.15,1.3,6.25,2.69,9.16,4.51c12.06,7.52,19.71,18.21,23.17,31.95c0.14,0.55,0.37,1.08,0.6,1.6
		C422.16,421.97,422.36,422.17,422.77,422.74z"/>
	<linearGradient id="SVGID_2_" gradientUnits="userSpaceOnUse" x1="472.7192" y1="527.5763" x2="603.7642" y2="527.5763">
		<stop  offset="0" style="stop-color:#B41E23"/>
		<stop  offset="0.9629" style="stop-color:#8D1D22"/>
		<stop  offset="1" style="stop-color:#8C1C21"/>
	</linearGradient>
	<path class="st2" d="M522.67,481.13c1.26,2.04,2.4,2.04,3.57,0.36c0.86-1.22,2.1-1.44,3.49-1.55c1.54-0.12,3.37,0.16,4.05-1.9
		c0.17-0.53,0.6-0.73,1.13-0.58c3.54,1,2.91-0.67,1.84-2.77c-0.24-0.47-0.2-1.13-0.18-1.69c0.04-1.08-0.71-2.56,0.64-3.08
		c1.25-0.49,1.58,1.06,2.22,1.81c0.43,0.5,0.77,1.18,1.61,0.69c1.37-0.8,2.51-1.97,2.61-3.49c0.08-1.23-0.08-2.24,1.33-2.71
		c0.61-0.2,0.53-0.74,0.28-1.18c-1.8-3.17,0.48-5.01,2.5-6.49c1.5-1.09,0.91-2.25,0.86-3.34c-0.08-1.76,0.92-1.93,1.89-1.28
		c1.35,0.9,2.75,0.91,4.21,1.22c2.06,0.44,4.24,1.46,4.28,4.15c0.02,1.76,1.67,1.49,2.43,1.86c2.4,1.17,4.82,3.15,7.79,0.53
		c1.16-1.02,2.86,0.41,3.97,1.43c13.15,12.11,21.68,27.01,26.62,44.1c2.71,9.4,4.05,18.96,3.94,28.74
		c-0.05,4.98-0.63,5.65-5.63,6.32c-1.33,0.18-2.76,0.07-3.32,1.66c-0.54,1.54,0.84,2.22,1.62,3.05c1.71,1.81,2.06,3.68,0.36,5.56
		c-1.71,1.89-3.6,1.91-5.42,0.01c-0.6-0.63-1.35-1.22-2.23-1.12c-1.67,0.18-2.49-0.52-2.78-2.11c-0.08-0.44-0.41-1.16-0.68-1.18
		c-2.77-0.29-3.3-2.8-4.65-4.49c-1.67-2.08-3.77-2.27-5.5-0.23c-1.56,1.83-3.32,3.4-5.07,5c-1.78,1.63-2.14,5.78-0.72,7.42
		c0.42,0.49,0.59,1.03,0.02,1.49c-0.52,0.42-0.97,0.03-1.52-0.18c-3.54-1.39-4.31-4.67-5.5-7.71c-1.38-3.53-3.94-6.24-6.53-8.9
		c-0.73-0.75-1.59-1.39-2.75-1.32c-5.97,0.35-11.45-0.97-16.22-4.92c-0.25,3.39,2.6,6.26,5.62,5.67c2.13-0.41,3.6,0.61,4.73,1.97
		c1.18,1.42-0.45,2.42-1.21,3.38c-3.17,4.02-7.78,5.56-12.45,6.87c-1.73,0.49-1.87-1.16-2.3-2.27c-1.71-4.35-4.39-8.13-7.04-11.93
		c-0.19-0.26-0.6-0.37-1.21-0.36c1.47,4.26,2.95,8.49,5.9,11.98c1.1,1.29,2.45,2.32,3.37,3.83c0.99,1.63,2.64,1.06,4.13,0.66
		c1-0.27,2.04-0.7,2.91,0.28c0.88,0.99-0.07,1.83-0.37,2.62c-0.97,2.63-2.56,4.74-4.99,6.37c-2.2,1.47-3.89,3.61-5.49,5.75
		c-1.28,1.71-1.06,3.6-0.54,5.47c1.08,3.85,0.3,6.93-3.37,9.01c-0.87,0.5-1.94,1.09-1.97,2.28c-0.12,5.13-3.82,8.35-6.46,12.1
		c-1.83,2.6-4.65,3.43-7.74,3.54c-1.82,0.06-2.62-0.74-3.16-2.53c-1.4-4.61-2.35-9.36-4.29-13.8c-0.73-1.67-0.93-3.67-0.12-4.99
		c2.61-4.28,0.25-7.78-1.21-11.48c-0.24-0.61-0.81-1.23-0.76-1.8c0.37-4.05-2.07-5.87-5.35-7.19c-0.78-0.32-1.39-0.3-2.16-0.14
		c-2.24,0.46-4.5,0.79-6.75,1.21c-2.81,0.52-5.11-0.56-6.96-2.48c-1.7-1.77-3.19-3.76-4.68-5.73c-1.31-1.73-0.08-3.69-0.3-5.54
		c-0.57-4.82,1.48-8.47,5.3-11.21c0.87-0.62,1.15-1.45,1.47-2.35c1.16-3.3,3.06-4.74,6.45-4.89c0.87-0.04,1.66-0.16,2.46-0.58
		c2.54-1.3,5.31-1.4,8.09-1.22c0.94,0.06,2.29,0.22,2.45,1.15c0.69,4.06,4.86,3.43,7.04,5.44c0.59,0.54,1.58,0.47,1.98-0.35
		c0.99-2.01,2.63-1.78,4.14-1.11c2.68,1.19,5.44,0.81,8.17,0.71c2.45-0.09,2.67-2.07,2.75-3.93c0.1-2.27-1.51-1.54-2.78-1.57
		c-2.89-0.07-6.18,0.48-6.69-3.83c-0.09-0.78-0.73-1.08-1.51-0.87c-0.81,0.22-1.01,0.81-0.83,1.55c0.2,0.84,0.09,1.58-0.78,1.89
		c-0.88,0.32-1.41-0.37-1.93-0.92c-1.33-1.43-2.14-3.87-4.98-2.24c-0.33,0.19-1.5-0.93-2.2-1.54c-4.97-4.3-8.98-3.46-11.95,2.52
		c-1.43,2.88-3.25,3.8-6.17,3.12c-2.51-0.59-4.17-3.2-3.44-6.18c0.46-1.86,2.3-2.23,4.16-2.23c4.22,0.01,4.41-0.37,2.44-4.3
		c-0.54-1.07-0.36-1.8,0.8-2.24c3.3-1.25,5.11-4.39,7.97-6.27c1.72-1.13,1.02-4,2.08-5.9c0.24-0.43-0.49-0.98-1.17-0.82
		c-1.53,0.38-2.41-0.37-2.83-1.7c-0.49-1.55-1.1-3.38,0.48-4.5c3.48-2.48,4.31-6.57,6.23-9.94c1.76-3.08,4.49-4.56,7.32-5.98
		c1.15-0.58,2.61-0.36,3.84,0.95c1.76,1.87,4.7,1.77,6.73,3.41c1.01,0.82,2.53,1.21,2.17,2.94c-0.33,1.56-1.69,1.22-2.79,1.33
		c-0.45,0.05-1.05-0.05-1.16,0.56c-0.12,0.69,0.23,1.32,0.69,1.8c0.45,0.46,1.05,0.41,1.56,0.02
		C520.73,486.22,522.69,484.51,522.67,481.13z M512.45,496.39c-1.03-0.79-1.79-0.6-2.5-0.61c-3.17-0.07-4.42-2.15-3.25-5.19
		c0.39-1.02,2.26-2.34,0.94-2.99c-1.39-0.68-1.22,1.69-1.95,2.57c-1.08,1.29-2.74,2.78-1.75,4.5c1.39,2.4-0.37,4.19-0.61,6.23
		c-0.13,1.07-1.31,1.83-2.66,1.62c-0.76-0.12-1.82-0.86-1.85,0.71c-0.02,1.04,0.7,1.38,1.69,1.51c3.2,0.41,8.33-2.09,8.53-5.03
		C509.2,497.25,510.28,496.73,512.45,496.39z M524.63,520.74c1.32-0.23,2.61-1.1,1.92-2.05c-1.04-1.44-2.63-2.45-3.74-4
		c-0.55-0.76-1.26,1.05-2.06,1.43c-0.6,0.29-1.08-0.12-1.56-0.43c-1.68-1.08-2.3,0-2.97,1.34c-0.79,1.57-0.07,2.14,1.28,2.75
		C519.84,520.83,522.46,519.19,524.63,520.74z M536.05,513.68c-2.3,0.19-3.74,2.84-2.49,4.66c1.23,1.8,2.64,3.35,2.36,5.85
		c-0.14,1.23,1.32,1.72,2.4,2.1c0.54,0.19,1.21,0.2,1.6-0.27c0.77-0.94,0.01-1.81-0.34-2.62c-0.52-1.22-1.18-2.38-1.81-3.55
		c-0.8-1.47-1.93-2.76-0.55-4.63C537.95,514.21,536.81,513.84,536.05,513.68z"/>
	<linearGradient id="SVGID_3_" gradientUnits="userSpaceOnUse" x1="412.052" y1="469.0529" x2="485.141" y2="469.0529">
		<stop  offset="0" style="stop-color:#B41E23"/>
		<stop  offset="0.9629" style="stop-color:#8D1D22"/>
		<stop  offset="1" style="stop-color:#8C1C21"/>
	</linearGradient>
	<path class="st3" d="M432.26,468c1.28-2.98,1.89-6.44,5.63-7.66c0.42-0.14,0.63-0.88,0.94-1.34c2.58-3.87,6.04-6.65,10.44-8.21
		c1.15-0.41,1.82-1.32,2.65-2.09c2.61-2.43,5.76-3.98,9.08-5.14c1-0.35,2.03-0.19,2.61,1.06c1.57,3.37,4.28,3.85,6.94,1.16
		c1.45-1.47,3.2-2.34,5.02-3.1c1.89-0.79,6,1.66,6.1,3.69c0.1,2.14-2.03,1.13-3.14,2.01c1.05,1.43,2.16,2.47,4.12,1.64
		c0.92-0.38,1.71-0.19,2.24,0.64c0.66,1.04-0.24,1.52-0.85,2.1c-1.79,1.69-2.56,3.91-3.39,6.14c-1.82,4.88-1.9,10.43-5.56,14.62
		c-0.55,0.63-0.71,1.31-0.39,2.11c0.11,0.26,0.2,0.56,0.18,0.83c-0.09,1.47-3.54,5.3-5.14,5.55c-2.07,0.31-3.76,1.17-5.16,2.73
		c-0.5,0.55-1.14,1.17-1.82,1.33c-3.92,0.93-5.4,4.2-7.13,7.23c-0.61,1.07-1.11,2.66-2.54,2.19c-1.49-0.49-3.36-1.07-3.57-3.2
		c-0.42-4.1-1.8-8.42,2.5-11.5c-0.8-2.15,1.22-3.98,0.71-6.03c-0.18-0.71-0.27-1.28,0.1-1.87c1.25-2,0.66-4.28,0.96-6.42
		c0.24-1.73-0.97-2.3-2.45-2.48c-2.4-0.29-2.82-1.67-1.33-3.26c1.21-1.29,0.28-2.19-0.23-2.89c-0.8-1.11-1.67-0.1-2.38,0.48
		c-0.74,0.6-1.6,1.15-2.1,1.92c-1.56,2.42-3.49,2.56-5.87,1.37c-0.66-0.33-1.79-1.06-2.05,0.33c-0.22,1.21,1,1.12,1.81,1.25
		c0.72,0.12,1.64-0.08,1.91,0.88c0.29,1.06-0.49,1.61-1.26,1.97c-1.24,0.59-1.37,2.36-3.53,2.66c1.26,0.2,1.93,0.25,2.58,0.43
		c0.32,0.09,0.83,0.58,0.82,0.6c-1.87,2.82,1.67,3.66,2.13,5.67c0.31,1.35,0.7,2.51,0.08,3.81c-0.54,1.14-0.4,2.12,0.36,3.19
		c1.49,2.09,0.86,3.76-1.59,3.72c-1.73-0.03-2.01,0.48-1.76,1.89c0.3,1.69-0.73,2.43-2.09,2.92c-1.48,0.54-2.82,0.04-3.42-1.24
		c-0.69-1.45-1.6-2.39-3.19-2.59c0.32-0.92,0.96-0.87,1.47-1.07c2.64-1.01,3.92-6.08,2.01-8.17c-0.63-0.69-1.44-0.94-1.98,0.26
		c-1.22,2.72-2.5,5.34-5.86,6.07c-0.92,0.2-1.27,1.06-0.68,2.05c0.37,0.62,1,1.47,0.1,1.98c-0.68,0.39-1.96,0.71-2.42,0.35
		c-2.14-1.67-3.49-0.09-4.96,0.96c-1.4,0.99-2.71,2.1-4.06,3.15c-0.43,0.33-0.84,0.91-1.45,0.39c-0.4-0.34-0.46-0.89-0.19-1.31
		c2.67-4.12,3.41-9.58,8.48-12.07c1.22-0.6,1.62-2.07,2.09-3.32c0.26-0.7,0.37-1.51,0.79-2.11c0.64-0.91,1.52-2.3,2.61-1.82
		c1.51,0.66,0.24,1.93-0.08,2.92c-0.03,0.09-0.07,0.18-0.1,0.27c-0.51,1.22-0.57,2.42,0.34,3.49c0.67,0.79,1.29,0.15,1.69-0.26
		c0.87-0.88,1.99-1.49,1-3.31c-0.81-1.48,0.41-3.2,1.39-4.61c0.65-0.93,1.25-1.9,1.88-2.85C432.27,468.08,432.26,468,432.26,468z
		 M450.83,456.49c1.99-0.37,3.7-0.48,5.14-1.58c0.82-0.63,0.7-1.49,0.71-2.33c0-0.4-0.22-0.72-0.66-0.78
		C454.92,451.64,451.26,454.84,450.83,456.49z"/>
	<linearGradient id="SVGID_4_" gradientUnits="userSpaceOnUse" x1="411.3526" y1="581.3951" x2="457.1803" y2="581.3951">
		<stop  offset="0" style="stop-color:#B41E23"/>
		<stop  offset="0.9629" style="stop-color:#8D1D22"/>
		<stop  offset="1" style="stop-color:#8C1C21"/>
	</linearGradient>
	<path class="st4" d="M411.91,566.42c-1.26-2.24-0.18-4.13,1.43-5.93c0.52-0.58,0.54-1.35,0.34-2.16c-0.91-3.8,1.75-6.79,5.66-6.07
		c4.56,0.84,9.41,0.69,13.24,4.23c1.03,0.95,3.21,0.38,4.62,1.55c1.82,1.51,4,2.66,4.13,5.45c0.04,0.95,0.94,0.95,1.6,1.31
		c3.65,1.99,8.05,1.93,11.55,4.32c3.17,2.16,3.49,3.3,1.26,6.49c-1.04,1.49-1.41,2.97-1.25,4.8c0.38,4.41-0.56,5.87-4.39,7.68
		c-1.17,0.56-2.38,1.43-2.12,2.76c0.55,2.73-1.54,4.61-1.9,7.02c-0.1,0.64-0.63,1.14-1.25,1.49c-0.4,0.22-1.1,0.72-1.06,0.82
		c1.29,2.89-1.69,3.49-2.66,5.15c-0.4,0.69-1.41,1.37-0.97,2.25c1.2,2.4-1.25,1.93-2.05,2.68c-1.11,1.03-1.85-0.11-2.66-0.71
		c-4.7-3.5-5.79-8.7-7.04-14c-0.71-3.02-1.03-6.13-2.03-9.12c-0.98-2.93-2.44-5.38-4.97-6.97c-4.2-2.64-6-7.31-9.39-10.62
		C411.43,568.24,411.48,567.41,411.91,566.42z"/>
	<linearGradient id="SVGID_5_" gradientUnits="userSpaceOnUse" x1="402.6111" y1="514.5496" x2="440.2829" y2="514.5496">
		<stop  offset="0" style="stop-color:#B41E23"/>
		<stop  offset="0.9629" style="stop-color:#8D1D22"/>
		<stop  offset="1" style="stop-color:#8C1C21"/>
	</linearGradient>
	<path class="st5" d="M429.38,510.32c1.79,1.54,0.11,4.53,3.08,5.22c-1.49,1.48-2.91,2.12-4.74,1.87c-1.75-0.24-2.83,0.99-4.21,1.83
		c-4.89,2.98-6.52,9-11.47,11.84c-1.68,0.96-1.12,2.64-1.07,4.12c0.03,0.99,0.53,2.32-0.85,2.67c-1.39,0.36-1.33-1.12-1.62-1.89
		c-0.53-1.39-1.37-2-2.86-2.25c-2.18-0.36-3.01-1.56-3.03-4.09c-0.1-10.75,3.15-20.74,6.44-30.73c0.75-2.27,1.36-2.23,3.07-0.36
		c0.94,1.02,2.08,1.9,3.26,2.65c1.72,1.08,3.08,2.2,2.37,4.53c-0.13,0.42,0.08,1.01,0.63,1.14c0.79,0.18,0.86-0.52,1.08-1.03
		c0.75-1.76,1.55-3.44,3.5-4.28c0.8-0.34,1.39-1.3,1.27-2.11c-0.34-2.39,1.22-4.11,1.88-6.14c0.5-1.53,1.4-2.45,3.18-2.07
		c1.88,0.4,3.41,1.46,3.19,3.39c-0.26,2.3,0.5,2.82,2.56,2.66c1.11-0.09,2.28,0.47,2.18,1.73c-0.17,2.05,0.89,3.32,2.08,4.73
		c1.47,1.74,1.34,3.26-0.78,4.71C435.76,510.34,432.57,509.36,429.38,510.32z M408.11,518.21c1.17-1.84,2.37-2.94,4.38-1.23
		c0.55,0.47,1.27-0.02,1.58-0.71c0.33-0.75-0.2-1.02-0.77-1.22c-0.81-0.29-1.53-0.59-1.99-1.45c-1.35-2.52-1.39-2.5-4.06-0.53
		C411.12,514.18,407.97,516.16,408.11,518.21z"/>
	<linearGradient id="SVGID_6_" gradientUnits="userSpaceOnUse" x1="495.4267" y1="458.3676" x2="505.1572" y2="458.3676">
		<stop  offset="0" style="stop-color:#B41E23"/>
		<stop  offset="0.9629" style="stop-color:#8D1D22"/>
		<stop  offset="1" style="stop-color:#8C1C21"/>
	</linearGradient>
	<path class="st6" d="M504.4,461.39c-1.88-0.16-3.23-0.52-3.39,1.24c-0.02,0.18-0.41,0.41-0.67,0.46c-0.84,0.17-1.87-0.24-1.89-0.89
		c-0.06-2.17-4.16-1.98-2.74-4.84c1.35-2.72,5.55-4.49,8.26-3.48c1.09,0.41,1.53,1.17,0.83,2.22c-0.46,0.69-0.73,1.5-1.5,2.04
		C501.78,459.23,502.3,460.24,504.4,461.39z"/>
	<linearGradient id="SVGID_7_" gradientUnits="userSpaceOnUse" x1="584.1147" y1="561.8053" x2="593.198" y2="561.8053">
		<stop  offset="0" style="stop-color:#B41E23"/>
		<stop  offset="0.9629" style="stop-color:#8D1D22"/>
		<stop  offset="1" style="stop-color:#8C1C21"/>
	</linearGradient>
	<path class="st7" d="M588.35,560.16c0.77-2-1.33-3.22-1.02-4.99c3.63,1.94,4.1,2.9,3.5,6.67c-0.2,1.27,0.6,2.19,1.49,2.89
		c1.23,0.97,1.03,1.97,0.22,2.95c-0.92,1.11-2,0.9-2.98,0.02c-2.46-2.21-3.18-5.56-5.26-8.05c-0.62-0.74,0.46-1.13,1.12-0.91
		C586.38,559.07,587.26,559.62,588.35,560.16z"/>
	<linearGradient id="SVGID_8_" gradientUnits="userSpaceOnUse" x1="529.3137" y1="584.8674" x2="537.3353" y2="584.8674">
		<stop  offset="0" style="stop-color:#B41E23"/>
		<stop  offset="0.9629" style="stop-color:#8D1D22"/>
		<stop  offset="1" style="stop-color:#8C1C21"/>
	</linearGradient>
	<path class="st8" d="M529.35,588.4c0.42-4.16,2.41-7.3,6.01-9.41c0.52-0.31,0.99-0.62,1.52-0.14c0.47,0.42,0.54,1.03,0.37,1.57
		c-1,3.27-2.36,6.4-4.04,9.36c-0.47,0.83-1.46,1.69-2.63,1.19C529.52,590.52,529.19,589.5,529.35,588.4z"/>
	<linearGradient id="SVGID_9_" gradientUnits="userSpaceOnUse" x1="524.7494" y1="467.7382" x2="531.5531" y2="467.7382">
		<stop  offset="0" style="stop-color:#B41E23"/>
		<stop  offset="0.9629" style="stop-color:#8D1D22"/>
		<stop  offset="1" style="stop-color:#8C1C21"/>
	</linearGradient>
	<path class="st9" d="M531.19,459.83c0.68,1.16,0.33,2.11-0.44,3.07c-2.55,3.18-3.38,6.7-2.03,10.64c0.21,0.6,0.55,1.33-0.1,1.84
		c-0.81,0.64-1.41-0.08-2-0.5c-0.72-0.5-1.21-1.21-1.43-2.06C523.75,467.23,525.92,462.52,531.19,459.83z"/>
	<linearGradient id="SVGID_10_" gradientUnits="userSpaceOnUse" x1="483.9008" y1="504.8325" x2="490.5476" y2="504.8325">
		<stop  offset="0" style="stop-color:#B41E23"/>
		<stop  offset="0.9629" style="stop-color:#8D1D22"/>
		<stop  offset="1" style="stop-color:#8C1C21"/>
	</linearGradient>
	<path class="st10" d="M487.32,510.09c-1.75,0.23-2.29-1.08-1.97-2.47c0.41-1.78,0.46-3.27-0.82-4.73c-0.62-0.7-0.88-1.71-0.34-2.66
		c0.38-0.67,1.06-0.78,1.75-0.61c1.12,0.27,1.41,1.21,1.53,2.16c0.2,1.62,1.21,2.74,2.17,3.92c0.7,0.85,1.21,1.82,0.72,2.87
		C489.83,509.69,488.72,510.07,487.32,510.09z"/>
	<linearGradient id="SVGID_11_" gradientUnits="userSpaceOnUse" x1="471.8351" y1="488.4493" x2="478.9915" y2="488.4493">
		<stop  offset="0" style="stop-color:#B41E23"/>
		<stop  offset="0.9629" style="stop-color:#8D1D22"/>
		<stop  offset="1" style="stop-color:#8C1C21"/>
	</linearGradient>
	<path class="st11" d="M476.66,485.96c0.83,0.04,1.81,0.21,2.2,1.24c0.4,1.04-0.15,1.87-0.98,2.43c-1.51,1.03-3.05,1.9-4.96,0.81
		c-1.13-0.65-1.12-1.7-1.07-2.72c0.06-1.1,0.96-1.24,1.85-1.34C474.64,486.28,475.58,486.12,476.66,485.96z"/>
	<linearGradient id="SVGID_12_" gradientUnits="userSpaceOnUse" x1="403.6857" y1="551.6629" x2="410.8168" y2="551.6629">
		<stop  offset="0" style="stop-color:#B41E23"/>
		<stop  offset="0.9629" style="stop-color:#8D1D22"/>
		<stop  offset="1" style="stop-color:#8C1C21"/>
	</linearGradient>
	<path class="st12" d="M410.82,555.21c-3.13,0.74-7.37-2.66-7.12-5.54c0.09-1.04,0.67-1.58,1.62-1.65c1.02-0.08,1.91,0.29,2.21,1.39
		c0.32,1.18-0.01,2.54,0.8,3.57C409,553.84,410.31,554.06,410.82,555.21z"/>
	<linearGradient id="SVGID_13_" gradientUnits="userSpaceOnUse" x1="536.7136" y1="447.5053" x2="543.1472" y2="447.5053">
		<stop  offset="0" style="stop-color:#B41E23"/>
		<stop  offset="0.9629" style="stop-color:#8D1D22"/>
		<stop  offset="1" style="stop-color:#8C1C21"/>
	</linearGradient>
	<path class="st13" d="M538.21,444.68c1.27,1.59,3.88,1.78,4.76,3.99c0.43,1.07,0.09,1.93-1.37,1.58c-2.18-0.52-3.65-1.96-4.67-3.85
		C536.39,445.4,536.86,444.78,538.21,444.68z"/>
	<linearGradient id="SVGID_14_" gradientUnits="userSpaceOnUse" x1="480.5352" y1="505.9619" x2="484.2142" y2="505.9619">
		<stop  offset="0" style="stop-color:#B41E23"/>
		<stop  offset="0.9629" style="stop-color:#8D1D22"/>
		<stop  offset="1" style="stop-color:#8C1C21"/>
	</linearGradient>
	<path class="st14" d="M484.21,505.08c-0.24,1.64-0.59,3.02-2.39,3.16c-1.2,0.09-1.3-0.8-1.29-1.7c0.02-1.68,1.04-2.61,2.54-2.85
		C484.05,503.54,484.17,504.48,484.21,505.08z"/>
	<linearGradient id="SVGID_15_" gradientUnits="userSpaceOnUse" x1="437.3683" y1="511.9507" x2="441.1423" y2="511.9507">
		<stop  offset="0" style="stop-color:#B41E23"/>
		<stop  offset="0.9629" style="stop-color:#8D1D22"/>
		<stop  offset="1" style="stop-color:#8C1C21"/>
	</linearGradient>
	<path class="st15" d="M441.14,512.57c-0.33,0.79-0.81,1.43-1.66,1.32c-1.4-0.19-2.13-1.11-2.12-2.51c0.01-0.64,0.21-1.54,1.04-1.33
		C439.72,510.36,440.62,511.33,441.14,512.57z"/>
	<linearGradient id="SVGID_16_" gradientUnits="userSpaceOnUse" x1="596.2507" y1="563.1901" x2="599.5746" y2="563.1901">
		<stop  offset="0" style="stop-color:#B41E23"/>
		<stop  offset="0.9629" style="stop-color:#8D1D22"/>
		<stop  offset="1" style="stop-color:#8C1C21"/>
	</linearGradient>
	<path class="st16" d="M599.57,562.44c-0.35,1.07-0.11,2.7-1.72,2.86c-1.12,0.11-1.51-1.17-1.6-2.05c-0.14-1.47,1.22-1.79,2.26-2.12
		C599.55,560.81,599.46,561.75,599.57,562.44z"/>
	<linearGradient id="SVGID_17_" gradientUnits="userSpaceOnUse" x1="427.8623" y1="468.5409" x2="432.2743" y2="468.5409">
		<stop  offset="0" style="stop-color:#B41E23"/>
		<stop  offset="0.9629" style="stop-color:#8D1D22"/>
		<stop  offset="1" style="stop-color:#8C1C21"/>
	</linearGradient>
	<path class="st17" d="M432.26,468c0,0,0.01,0.08,0.01,0.08c-1.16,1.17-2.63,1.74-4.41,2.52c0.1-2.08,1.1-3.27,2.51-3.95
		C431.38,466.17,432.21,466.74,432.26,468z"/>
	<linearGradient id="SVGID_18_" gradientUnits="userSpaceOnUse" x1="544.1902" y1="450.6947" x2="547.1797" y2="450.6947">
		<stop  offset="0" style="stop-color:#B41E23"/>
		<stop  offset="0.9629" style="stop-color:#8D1D22"/>
		<stop  offset="1" style="stop-color:#8C1C21"/>
	</linearGradient>
	<path class="st18" d="M547.18,451.05c-0.21,0.85-0.66,1.2-1.27,0.96c-0.92-0.36-1.53-1.2-1.7-2.07c-0.15-0.77,0.68-0.69,1.2-0.53
		C546.31,449.69,547.17,450.06,547.18,451.05z"/>
	<linearGradient id="SVGID_19_" gradientUnits="userSpaceOnUse" x1="418.0579" y1="545.1909" x2="420.8893" y2="545.1909">
		<stop  offset="0" style="stop-color:#B41E23"/>
		<stop  offset="0.9629" style="stop-color:#8D1D22"/>
		<stop  offset="1" style="stop-color:#8C1C21"/>
	</linearGradient>
	<path class="st19" d="M419.3,546.21c-0.84,0.04-1.29-0.44-1.23-1.2c0.07-0.94,0.91-0.79,1.54-0.83c0.6-0.04,1.31,0.08,1.28,0.77
		C420.86,545.81,420.18,546.23,419.3,546.21z"/>
</g>
</svg>
